<svg xmlns="http://www.w3.org/2000/svg" viewBox="0 0 1600 580">
  <rect width="1600" height="580" fill="#f8f6f3"/>
  <defs><marker id="arr" markerWidth="10" markerHeight="10" refX="9" refY="3" orient="auto" markerUnits="strokeWidth"><path d="M0,0 L0,6 L9,3 z" fill="#5a5a5a"/></marker></defs>
  <text x="800" y="44" font-family="system-ui,sans-serif" font-size="26" font-weight="600" fill="#1a1a1a" text-anchor="middle">旧范式 vs 原生多模态 Agent 范式</text>
  <rect x="60" y="68" width="640" height="46" rx="8" fill="#e8e6e3" stroke="#4a4a4a" stroke-width="2"/>
  <text x="380" y="98" font-family="system-ui,sans-serif" font-size="18" font-weight="600" fill="#6a6a6a" text-anchor="middle">旧范式：视觉作为辅助输入</text>
  <rect x="130" y="140" width="500" height="52" rx="6" fill="#a8c5e6" stroke="#4a4a4a" stroke-width="2"/>
  <text x="380" y="172" font-family="system-ui,sans-serif" font-size="17" fill="#1a1a1a" text-anchor="middle">Vision Encoder</text>
  <rect x="130" y="250" width="500" height="52" rx="6" fill="#f4e4c1" stroke="#4a4a4a" stroke-width="2"/>
  <text x="380" y="282" font-family="system-ui,sans-serif" font-size="17" fill="#1a1a1a" text-anchor="middle">MLP Projection</text>
  <rect x="130" y="360" width="500" height="52" rx="6" fill="#9dd4c7" stroke="#4a4a4a" stroke-width="2"/>
  <text x="380" y="392" font-family="system-ui,sans-serif" font-size="17" fill="#1a1a1a" text-anchor="middle">LLM（主角）</text>
  <rect x="130" y="470" width="500" height="52" rx="6" fill="#e8e6e3" stroke="#4a4a4a" stroke-width="2"/>
  <text x="380" y="502" font-family="system-ui,sans-serif" font-size="17" fill="#1a1a1a" text-anchor="middle">回答问题 / 输出文字</text>
  <line x1="380" y1="192" x2="380" y2="240" stroke="#5a5a5a" stroke-width="2" marker-end="url(#arr)"/>
  <line x1="380" y1="302" x2="380" y2="350" stroke="#5a5a5a" stroke-width="2" marker-end="url(#arr)"/>
  <line x1="380" y1="412" x2="380" y2="460" stroke="#5a5a5a" stroke-width="2" marker-end="url(#arr)"/>
  <line x1="795" y1="60" x2="795" y2="545" stroke="#4a4a4a" stroke-width="1.5" stroke-dasharray="8,4"/>
  <text x="800" y="300" font-family="system-ui,sans-serif" font-size="36" fill="#9dd4c7" text-anchor="middle">→</text>
  <rect x="900" y="68" width="640" height="46" rx="8" fill="#9dd4c7" stroke="#4a4a4a" stroke-width="2"/>
  <text x="1220" y="98" font-family="system-ui,sans-serif" font-size="18" font-weight="600" fill="#1a1a1a" text-anchor="middle">新范式：感知即推理，视觉即行动</text>
  <circle cx="1220" cy="330" r="105" fill="#9dd4c7" stroke="#4a4a4a" stroke-width="2.5"/>
  <text x="1220" y="322" font-family="system-ui,sans-serif" font-size="17" font-weight="600" fill="#1a1a1a" text-anchor="middle">Agent Core</text>
  <text x="1220" y="344" font-family="system-ui,sans-serif" font-size="15" fill="#1a1a1a" text-anchor="middle">（感知 ∩ 推理 ∩ 执行）</text>
  <rect x="975" y="147" width="130" height="50" rx="6" fill="#f4e4c1" stroke="#4a4a4a" stroke-width="2"/>
  <text x="1040" y="185" font-family="system-ui,sans-serif" font-size="17" fill="#1a1a1a" text-anchor="middle">感知</text>
  <line x1="1138" y1="260" x2="1091" y2="193" stroke="#5a5a5a" stroke-width="2" marker-end="url(#arr)"/>
  <rect x="1335" y="147" width="130" height="50" rx="6" fill="#f4e4c1" stroke="#4a4a4a" stroke-width="2"/>
  <text x="1400" y="185" font-family="system-ui,sans-serif" font-size="17" fill="#1a1a1a" text-anchor="middle">规划</text>
  <line x1="1301" y1="260" x2="1348" y2="193" stroke="#5a5a5a" stroke-width="2" marker-end="url(#arr)"/>
  <rect x="975" y="462" width="130" height="50" rx="6" fill="#f4e4c1" stroke="#4a4a4a" stroke-width="2"/>
  <text x="1040" y="500" font-family="system-ui,sans-serif" font-size="17" fill="#1a1a1a" text-anchor="middle">工具使用</text>
  <line x1="1140" y1="401" x2="1090" y2="471" stroke="#5a5a5a" stroke-width="2" marker-end="url(#arr)"/>
  <rect x="1335" y="462" width="130" height="50" rx="6" fill="#f4e4c1" stroke="#4a4a4a" stroke-width="2"/>
  <text x="1400" y="500" font-family="system-ui,sans-serif" font-size="17" fill="#1a1a1a" text-anchor="middle">执行</text>
  <line x1="1299" y1="401" x2="1349" y2="471" stroke="#5a5a5a" stroke-width="2" marker-end="url(#arr)"/>
</svg>